<svg width="64" height="64" viewBox="0 0 64 64" fill="none" xmlns="http://www.w3.org/2000/svg">
  <defs>
    <linearGradient id="brandGradient" x1="4" y1="4" x2="60" y2="60" gradientUnits="userSpaceOnUse">
      <stop stop-color="#4f46e5" />
      <stop offset="1" stop-color="#7c3aed" />
    </linearGradient>
    <filter id="shadow" x="-4" y="-4" width="72" height="72" filterUnits="userSpaceOnUse">
      <feDropShadow dx="0" dy="2" stdDeviation="2" flood-color="#000" flood-opacity="0.15"/>
    </filter>
  </defs>

  <!-- Background Container -->
  <rect x="4" y="4" width="56" height="56" rx="14" fill="url(#brandGradient)" filter="url(#shadow)" />
  
  <!-- Subtle Inner Ring for depth -->
  <rect x="5.5" y="5.5" width="53" height="53" rx="13" stroke="white" stroke-opacity="0.15" stroke-width="3" />

  <!-- Stylized "P" Path -->
  <path d="M26 16H34C41.732 16 48 21.3726 48 28C48 34.6274 41.732 40 34 40H30V50C30 51.1046 29.1046 52 28 52C26.8954 52 26 51.1046 26 50V16Z" fill="white" />
  
  <!-- Main AI Sparkle (Top Right) -->
  <path d="M52 8L54.5 13.5L60 16L54.5 18.5L52 24L49.5 18.5L44 16L49.5 13.5L52 8Z" fill="#fbbf24" style="filter: drop-shadow(0px 1px 2px rgba(0,0,0,0.2));" />
  
  <!-- Secondary Sparkle (Bottom Left) -->
  <path d="M14 44L15 46.5L17.5 47.5L15 48.5L14 51L13 48.5L10.5 47.5L13 46.5L14 44Z" fill="#fbbf24" fill-opacity="0.9" />
</svg>